<?xml version="1.0" encoding="UTF-8" standalone="no"?>
<svg
   xmlns:osb="http://www.openswatchbook.org/uri/2009/osb"
   xmlns:dc="http://purl.org/dc/elements/1.1/"
   xmlns:cc="http://creativecommons.org/ns#"
   xmlns:rdf="http://www.w3.org/1999/02/22-rdf-syntax-ns#"
   xmlns:svg="http://www.w3.org/2000/svg"
   xmlns="http://www.w3.org/2000/svg"
   xmlns:sodipodi="http://sodipodi.sourceforge.net/DTD/sodipodi-0.dtd"
   xmlns:inkscape="http://www.inkscape.org/namespaces/inkscape"
   id="svg8"
   version="1.1"
   viewBox="0 0 105.62737 108.72527"
   height="108.72527mm"
   width="105.62737mm"
   sodipodi:docname="club.svg"
   inkscape:version="1.0.1 (3bc2e813f5, 2020-09-07)">
  <sodipodi:namedview
     pagecolor="#ffffff"
     bordercolor="#666666"
     borderopacity="1"
     objecttolerance="10"
     gridtolerance="10"
     guidetolerance="10"
     inkscape:pageopacity="0"
     inkscape:pageshadow="2"
     inkscape:window-width="1662"
     inkscape:window-height="1109"
     id="namedview22"
     showgrid="false"
     inkscape:zoom="2.0488492"
     inkscape:cx="199.61078"
     inkscape:cy="205.46508"
     inkscape:window-x="0"
     inkscape:window-y="0"
     inkscape:window-maximized="0"
     inkscape:current-layer="svg8" />
  <defs
     id="defs2">
    <linearGradient
       osb:paint="solid"
       id="linearGradient2461">
      <stop
         id="stop2459"
         offset="0"
         style="stop-color:#4f4f4f;stop-opacity:1;" />
    </linearGradient>
  </defs>
  <metadata
     id="metadata5">
    <rdf:RDF>
      <cc:Work
         rdf:about="">
        <dc:format>image/svg+xml</dc:format>
        <dc:type
           rdf:resource="http://purl.org/dc/dcmitype/StillImage" />
        <dc:title />
      </cc:Work>
    </rdf:RDF>
  </metadata>
  <g
     transform="translate(-109.50834,-117.30447)"
     id="layer1"
     inkscape:export-xdpi="99.988152"
     inkscape:export-ydpi="99.988152">
    <g
       id="g2942">
      <g
         id="g2918"
         transform="translate(-0.05787761)">
        <ellipse
           ry="26.898664"
           rx="27.744318"
           cy="144.20793"
           cx="162.33885"
           id="ellipse2914"
           style="opacity:1;fill:#3b3b3b;fill-opacity:1;stroke:none;stroke-width:0.28193718;stroke-linecap:round;stroke-linejoin:miter;stroke-miterlimit:4;stroke-dasharray:none;stroke-opacity:1" />
        <path
           id="ellipse999"
           transform="scale(0.26458333)"
           d="m 613.5,443.35547 a 104.86041,101.66424 0 0 0 -82.49805,39.09961 140.36069,140.36069 0 0 1 60.84571,-14.00977 140.36069,140.36069 0 0 1 126.36132,79.5293 104.86041,101.66424 0 0 0 0.15235,-2.95508 A 104.86041,101.66424 0 0 0 613.5,443.35547 Z"
           style="opacity:1;fill:#4f4f4f;fill-opacity:1;fill-rule:evenodd;stroke:none;stroke-width:1.06558931;stroke-linecap:round;stroke-linejoin:miter;stroke-miterlimit:4;stroke-dasharray:none;stroke-opacity:1" />
      </g>
      <g
         id="g867"
         transform="matrix(1,0,0,1.0203721,121.71117,-6.9873613)">
        <g
           style="stroke:#3b3b3b;stroke-opacity:1"
           transform="matrix(1,0,0,0.99168128,-22.794187,1.4792974)"
           id="g856">
          <path
             style="fill:none;fill-rule:evenodd;stroke:#3b3b3b;stroke-width:0.26499999;stroke-linecap:round;stroke-linejoin:miter;stroke-miterlimit:4;stroke-dasharray:none;stroke-opacity:1"
             d="m 63.347081,196.44419 c 0,0 -16.759301,30.75101 -23.908909,32.21168"
             id="path834" />
          <path
             style="fill:none;fill-rule:evenodd;stroke:#3b3b3b;stroke-width:0.26458332px;stroke-linecap:round;stroke-linejoin:miter;stroke-opacity:1"
             d="m 63.347081,196.44419 c 0,0 16.7593,30.75101 23.908908,32.21168"
             id="path834-1" />
          <path
             style="fill:none;fill-rule:evenodd;stroke:#3b3b3b;stroke-width:0.26458332px;stroke-linecap:round;stroke-linejoin:miter;stroke-opacity:1"
             d="M 39.438172,228.65587 H 87.255989"
             id="path851" />
        </g>
        <path
           id="path860"
           d="m 17.728653,227.93886 c 2.887747,-1.61231 6.861584,-6.2237 12.126673,-14.07228 3.197794,-4.7669 7.068163,-11.09787 10.121009,-16.55551 0.457404,-0.81771 0.52738,-0.92373 0.571528,-0.86584 0.02767,0.0362 0.200272,0.33437 0.383569,0.66243 1.948509,3.4874 4.744112,8.1876 7.031533,11.82198 6.734432,10.70005 11.997231,17.21374 15.381009,19.03685 l 0.290666,0.1566 -23.117703,-1.5e-4 -23.117706,-1.6e-4 z"
           style="opacity:1;fill:#3b3b3b;fill-opacity:1;stroke:#3b3b3b;stroke-width:0.03867939;stroke-linecap:round;stroke-linejoin:miter;stroke-miterlimit:4;stroke-dasharray:none;stroke-opacity:1" />
      </g>
      <ellipse
         style="opacity:1;fill:#3b3b3b;fill-opacity:1;stroke:none;stroke-width:0.28193718;stroke-linecap:round;stroke-linejoin:miter;stroke-miterlimit:4;stroke-dasharray:none;stroke-opacity:1"
         id="path875"
         cx="137.25266"
         cy="181.70168"
         rx="27.744318"
         ry="26.898664" />
      <g
         id="g2927">
        <ellipse
           style="opacity:1;fill:#3b3b3b;fill-opacity:1;stroke:none;stroke-width:0.28193718;stroke-linecap:round;stroke-linejoin:miter;stroke-miterlimit:4;stroke-dasharray:none;stroke-opacity:1"
           id="ellipse2923"
           cx="187.27676"
           cy="181.71715"
           rx="27.744318"
           ry="26.898664" />
        <path
           id="ellipse960"
           transform="scale(0.26458333)"
           d="m 724.97852,586.50781 a 124.80434,117.5565 0 0 1 69.45507,105.20703 124.80434,117.5565 0 0 1 -40.32031,86.37305 104.86041,101.66424 0 0 0 58.99805,-91.3418 104.86041,101.66424 0 0 0 -88.13281,-100.23828 z"
           style="opacity:1;fill:#4f4f4f;fill-opacity:1;stroke:none;stroke-width:1.06558931;stroke-linecap:round;stroke-linejoin:miter;stroke-miterlimit:4;stroke-dasharray:none;stroke-opacity:1" />
      </g>
    </g>
  </g>
</svg>
