<?xml version="1.0" encoding="UTF-8" standalone="no"?>
<svg
   xmlns:dc="http://purl.org/dc/elements/1.1/"
   xmlns:cc="http://creativecommons.org/ns#"
   xmlns:rdf="http://www.w3.org/1999/02/22-rdf-syntax-ns#"
   xmlns:svg="http://www.w3.org/2000/svg"
   xmlns="http://www.w3.org/2000/svg"
   xmlns:sodipodi="http://sodipodi.sourceforge.net/DTD/sodipodi-0.dtd"
   xmlns:inkscape="http://www.inkscape.org/namespaces/inkscape"
   class="logo"
   viewBox="0 0 512 512"
   version="1.1"
   id="svg6"
   sodipodi:docname="logo.svg"
   inkscape:version="0.92.3 (2405546, 2018-03-11)">
  <metadata
     id="metadata12">
    <rdf:RDF>
      <cc:Work
         rdf:about="">
        <dc:format>image/svg+xml</dc:format>
        <dc:type
           rdf:resource="http://purl.org/dc/dcmitype/StillImage" />
      </cc:Work>
    </rdf:RDF>
  </metadata>
  <defs
     id="defs10" />
  <sodipodi:namedview
     pagecolor="#ffffff"
     bordercolor="#666666"
     borderopacity="1"
     objecttolerance="10"
     gridtolerance="10"
     guidetolerance="10"
     inkscape:pageopacity="0"
     inkscape:pageshadow="2"
     inkscape:window-width="1920"
     inkscape:window-height="1141"
     id="namedview8"
     showgrid="false"
     inkscape:zoom="1.6312866"
     inkscape:cx="-84.610169"
     inkscape:cy="256"
     inkscape:window-x="0"
     inkscape:window-y="0"
     inkscape:window-maximized="1"
     inkscape:current-layer="svg6" />
  <path
     fill="#131718"
     d="M512 255.98c0 141.387-114.616 255.995-256.004 255.995C114.616 511.975 0 397.367 0 255.98 0 114.6 114.616 0 255.996 0 397.384 0 512 114.6 512 255.98"
     id="path2"
     inkscape:export-xdpi="99.942375"
     inkscape:export-ydpi="99.942375" />
  <path
     fill="#fff"
     d="M196.672 195.245h8.472v16.942h-8.472zm-18.17 0h8.48v16.942h-8.48zm-18.17 0h8.48v16.942h-8.48zm-18.162 0h8.48v16.942h-8.48zm-18.15 0h8.47v16.942h-8.47zm-18.153 0h8.454v16.942h-8.45zm-18.187 0h8.48v16.942h-8.48zm108.992-40.275h8.472v23.315h-8.472zm-18.17 0h8.48v23.315h-8.48zm-18.17 0h8.48v23.315h-8.48zm-18.162 0h8.48v23.315h-8.48zm-18.15 0h8.47v23.315h-8.47zm-18.153 0h8.454v23.315h-8.45zm-18.187 0h8.48v23.315h-8.48zm108.992-14.827h8.472v8.47h-8.472zm-18.17 0h8.48v8.47h-8.48zm-18.17 0h8.48v8.47h-8.48zm-18.162 0h8.48v8.47h-8.48zm-18.15 0h8.47v8.47h-8.47zm-18.153 0h8.454v8.47h-8.45zm-18.187 0h8.48v8.47h-8.48zm354.793 78.4H298.377v-29.67h144.096v-4.23H69.51v4.23h144.07v29.67H69.51v4.25h144.113v4.28h84.754v-4.282h144.096v-4.24zm-211.882 0h-8.5v-21.34c0-2.263 1.92-4.082 4.26-4.082 2.37 0 4.25 1.82 4.25 4.09v21.34zm59.31 0h-8.47v-21.34c0-2.263 1.88-4.082 4.24-4.082 2.34 0 4.23 1.82 4.23 4.09v21.34zm-19.76 0h-8.49v-21.34c0-2.263 1.9-4.082 4.25-4.082s4.25 1.82 4.25 4.09v21.34zm-19.79 0h-8.47v-21.34c0-2.263 1.89-4.082 4.24-4.082 2.36 0 4.23 1.82 4.23 4.09v21.34zm-180.82-23.3h8.49v16.943h-8.49zm0-55.1h8.49v8.47h-8.49zm0 14.826h8.49v23.31h-8.49zm237.35 40.27h8.46v16.94h-8.46zm18.16 0h8.49v16.94h-8.48zm18.16 0h8.48v16.94h-8.48zm18.16 0h8.49v16.94h-8.49zm18.17 0H388v16.94h-8.48zm18.16 0h8.49v16.94h-8.49zm18.17 0h8.48v16.94h-8.48zm-108.98-40.27h8.47v23.31h-8.46zm18.16 0h8.49v23.31h-8.49zm18.16 0h8.48v23.31h-8.48zm18.16 0h8.49v23.31h-8.49zm18.17 0H388v23.31h-8.48zm18.16 0h8.49v23.31h-8.49zm18.17 0h8.48v23.31h-8.48zm-108.98-14.83h8.47v8.47h-8.463zm18.16 0h8.49v8.47h-8.487zm18.16 0h8.475v8.47h-8.47zm18.16 0h8.49v8.47h-8.49zm18.17 0H388v8.47h-8.48zm18.16 0h8.49v8.47h-8.49zm18.17 0h8.48v8.47h-8.48zm18.165 55.1h8.48v16.94H434zm0-55.1h8.48v8.47H434zm0 14.82h8.48v23.31H434zm8.48-21.19H294.55l3.83 4.24v42.35h-8.828v-46.6h-10.187l3.84 4.24v42.357h-8.837v-46.6H264.18l3.83 4.247v42.354h-8.845v-46.6h-10.168l3.822 4.247v42.354h-8.84v-46.6H233.8l3.83 4.247v42.356h-8.82v-46.6h-10.18l3.84 4.25v42.352h-8.855v-46.6H69.52v-4.24h144.095v-10.59l-3.822-4.24h92.416l-3.84 4.24v10.586h144.11v4.24zM232.7 119.5h-10.613v8.864H232.7V119.5zm19.067 0H241.17v8.864h10.595V119.5zm19.066 0h-10.586v8.864h10.587V119.5zm19.06 0h-10.58v8.864h10.58V119.5zM95.498 304.307l-16.115-43.62H69.52v53.98h7.103v-42.12l15.706 42.12h6.08l15.71-42.12v42.12h7.06v-53.98h-9.81zm148.736-1.367l-29.845-42.252h-7.34v53.98h7.04v-41.982l29.83 41.98h7.3V260.69h-7zm60.96 0l-29.836-42.252h-7.347v53.98h7.04v-41.982l29.86 41.98h7.32V260.69h-7.02zm75.716-42.26h7.49v53.987h-7.49zm29.455 47.502v-18.075h27.817v-6.487h-27.817v-16.454h30.87v-6.478h-37.94v53.98h39.178v-6.486zM105.588 338.34c-3.656-1.75-8.332-2.64-13.99-2.64h-22.08v53.98H91.6c6.338 0 11.458-1.132 15.33-3.36 7.793-4.502 11.746-12.285 11.746-23.29 0-12.26-4.37-20.486-13.086-24.69m3.517 35.44c-1.67 3.658-4.144 6.244-7.365 7.74-2.368 1.115-6.678 1.664-11.092 1.664H76.58V342.17h14.992c4.937 0 8.62.73 11.057 2.143 5.74 3.308 8.62 9.497 8.62 18.56 0 4.24-.71 7.845-2.15 10.908m30.73 9.41v-18.08h27.81v-6.48h-27.81v-16.44h30.87v-6.49h-37.93v53.99h39.18v-6.5zm217.24-85.01l6.35 16.49h7.82l-20.89-53.94h-7.71l-20.91 53.94h7.82l6.36-16.49h21.15zm-10.59-28.14l8.69 21.92h-17.33l8.64-21.91zm-118.7 65.67h-20.73v53.99h13.19v-18.87h7.39c15.51 0 23.36-5.94 23.36-17.66 0-15.64-13.25-17.45-23.21-17.45m.29 25.15h-7.846V346.2h7.84c6.88 0 9.95 2.23 9.95 7.27 0 5.1-3.07 7.4-9.95 7.4m57.41-25.368h-12.87l-21.007 54.2h12.83l4.535-11.83H288.1l4.38 11.83h14.02l-21.01-54.21zm-.73 32.938H272.5l6.207-16.384 6.06 16.384zm74.35-15.84c0-11.37-7.31-16.89-22.4-16.89h-21.4v53.99h13.05v-20.01h6.287l11.633 20.006h14.02l-12.5-21.714c7.61-2.383 11.32-7.433 11.32-15.39m-30.76-6.41h7.84c7.1 0 10 1.942 10 6.697 0 4.83-2.9 6.8-10 6.8h-7.85v-13.5zm46.1-10.482h12.54v53.987h-12.54zm49.29 21.488c-7.44-2.055-10.57-3.508-10.57-7.173 0-3.04 2.71-4.842 7.23-4.842 4.99 0 10.05 3.187 12.87 7.775l8.854-6.79c-3.48-5.312-9.803-11.46-21.65-11.46-11.92 0-19.634 6.4-19.634 16.326 0 11.17 10.03 13.956 19.32 16.533 6.9 1.915 10.76 3.665 10.76 7.33 0 3.49-3.25 5.58-8.73 5.58-6.17 0-11.21-3.403-14.15-9.237l-9.63 5.755c4.65 8.95 12.55 13.703 23.21 13.703 15.97 0 21.65-8.566 21.65-16.61 0-11.63-10.814-14.53-19.52-16.89m-229.826-69.5c0 16.454-13.324 29.8-29.79 29.8-16.47 0-29.81-13.346-29.81-29.8 0-16.465 13.34-29.81 29.81-29.81 16.466 0 29.795 13.345 29.795 29.81m-29.79-16.858c-9.306 0-16.854 7.533-16.854 16.857 0 9.307 7.55 16.854 16.857 16.854s16.845-7.54 16.845-16.85c0-9.32-7.54-16.85-16.843-16.85"
     id="path4" />
</svg>
